<svg xmlns="http://www.w3.org/2000/svg" viewBox="0 0 29.05 29.05"><defs><style>.cls-1{fill:#383838;}</style></defs><title>Recurso 3</title><g id="Capa_2" data-name="Capa 2"><g id="Capa_1-2" data-name="Capa 1"><path class="cls-1" d="M14.52,5A9.48,9.48,0,1,0,24,14.52,9.49,9.49,0,0,0,14.52,5Zm7,9.48a7,7,0,1,1-7-7A7,7,0,0,1,21.5,14.52Z"/><path class="cls-1" d="M23.52,3.8A1.78,1.78,0,1,0,25.3,5.58,1.78,1.78,0,0,0,23.52,3.8Z"/><path class="cls-1" d="M22,0H7A7,7,0,0,0,0,7V22a7,7,0,0,0,7,7H22a7,7,0,0,0,7-7V7A7,7,0,0,0,22,0Zm4.75,7V22A4.75,4.75,0,0,1,22,26.78H7A4.75,4.75,0,0,1,2.28,22V7A4.75,4.75,0,0,1,7,2.28H22A4.75,4.75,0,0,1,26.78,7Z"/></g></g></svg>