<svg xmlns="http://www.w3.org/2000/svg" viewBox="0 0 27.2 21.76"><defs><style>.cls-1{fill:#383838;fill-rule:evenodd;}</style></defs><title>Recurso 4</title><g id="Capa_2" data-name="Capa 2"><g id="Capa_1-2" data-name="Capa 1"><path class="cls-1" d="M27.2,2.58a12,12,0,0,1-3.2.87A5.48,5.48,0,0,0,26.46.4a11.53,11.53,0,0,1-3.55,1.34,5.61,5.61,0,0,0-9.67,3.75,5.63,5.63,0,0,0,.17,1.25A15.83,15.83,0,0,1,1.9,1a5.58,5.58,0,0,0-.76,2.76A5.48,5.48,0,0,0,3.61,8.33a5.27,5.27,0,0,1-2.52-.68v.08a5.21,5.21,0,0,0,.38,2A5.58,5.58,0,0,0,5.58,13.1a5.62,5.62,0,0,1-1.48.2,5.27,5.27,0,0,1-1-.11A5.64,5.64,0,0,0,8.26,17a11.27,11.27,0,0,1-6.92,2.35A12,12,0,0,1,0,19.29a16.1,16.1,0,0,0,8.55,2.47A15.54,15.54,0,0,0,24.06,9.45a15.11,15.11,0,0,0,.36-3.31V5.43A11.58,11.58,0,0,0,27.2,2.58Z"/></g></g></svg>